<svg width="48" height="48" viewBox="0 0 48 48" fill="none" xmlns="http://www.w3.org/2000/svg">
<path d="M24.1769 15.0948C24.7817 14.0479 26.1206 13.6891 27.1677 14.2937C28.215 14.8983 28.5734 16.2372 27.9689 17.2845C27.5841 17.9509 26.9024 18.3371 26.1875 18.3745C25.8786 18.3907 25.5704 18.5198 25.4158 18.7877L23.9519 21.3233C23.7635 21.6496 23.861 22.0607 24.1239 22.3305C24.1972 22.4057 24.2672 22.484 24.3338 22.5653C24.5412 22.8183 24.8693 22.9595 25.1853 22.8747L26.9149 22.411C27.2134 22.331 27.4179 22.0668 27.5134 21.7729C27.7348 21.0921 28.2842 20.5336 29.0273 20.3344C30.1953 20.0215 31.3957 20.7147 31.7088 21.8826C32.0218 23.0507 31.3287 24.2518 30.1606 24.5647C29.4173 24.7639 28.6621 24.5545 28.1301 24.0752C27.9003 23.8682 27.591 23.7416 27.2922 23.8216L25.589 24.2781C25.3254 24.3487 25.1605 24.604 25.1605 24.8769C25.1605 25.0448 25.149 25.2099 25.1268 25.3717C25.0807 25.7077 25.2108 26.0568 25.5046 26.2264L31.8466 29.8882C32.1147 30.0429 32.4465 30.0002 32.7222 29.8596C33.5447 29.4402 34.5767 29.5745 35.2648 30.2627C36.1198 31.1177 36.1198 32.5038 35.2648 33.3589C34.4097 34.214 33.0236 34.214 32.1685 33.3589C31.7698 32.9602 31.5572 32.4462 31.5303 31.9242C31.5145 31.6156 31.3852 31.3077 31.1176 31.1531L24.8377 27.5274C24.531 27.3504 24.146 27.4257 23.8765 27.6554C23.2395 28.1984 22.4138 28.5263 21.5111 28.5263C21.3143 28.5263 21.1211 28.5104 20.9328 28.4801C20.649 28.4344 20.3521 28.5154 20.1647 28.7333L18.8048 30.3141C18.6032 30.5485 18.5831 30.8822 18.67 31.179C18.8712 31.8664 18.7322 32.6379 18.2303 33.2214C17.4416 34.138 16.0592 34.2416 15.1425 33.453C14.2259 32.6644 14.1217 31.282 14.9102 30.3653C15.4119 29.7821 16.1536 29.5291 16.8631 29.6248C17.1694 29.6661 17.4961 29.5964 17.6977 29.3621L18.6773 28.2236C18.9418 27.9161 18.8978 27.4553 18.6463 27.137C18.1551 26.5155 17.8617 25.7306 17.8617 24.8769C17.8618 24.6461 17.8832 24.4203 17.9242 24.2013C17.9897 23.8515 17.863 23.478 17.5548 23.3001L16.1518 22.4899C15.884 22.3352 15.5524 22.3775 15.2768 22.518C14.6389 22.8434 13.8553 22.8505 13.1888 22.4656C12.1418 21.861 11.7832 20.522 12.3877 19.4748C12.9923 18.4276 14.3312 18.0685 15.3784 18.673C16.0448 19.0577 16.4309 19.7395 16.4684 20.4545C16.4846 20.7632 16.6138 21.0714 16.8816 21.226L18.3622 22.0807C18.6547 22.2496 19.0205 22.1891 19.2882 21.9831C19.9037 21.5094 20.6744 21.2275 21.5111 21.2275C21.5913 21.2275 21.6708 21.2302 21.7496 21.2353C22.0652 21.256 22.3816 21.1226 22.5398 20.8487L24.1513 18.0577C24.3059 17.7899 24.2637 17.4584 24.1234 17.1829C23.7985 16.5449 23.7922 15.7612 24.1769 15.0948Z" fill="#E0FE08" fill-opacity="0.5"/>
</svg>
