<svg width="48" height="48" viewBox="0 0 48 48" fill="none" xmlns="http://www.w3.org/2000/svg">
<path fill-rule="evenodd" clip-rule="evenodd" d="M23.9998 17.4412C25.6943 14.8089 28.1093 13.3768 29.5591 14.2139C30.3423 14.6661 31.0877 15.6931 31.0185 16.9811C32.3065 16.9118 33.3341 17.6573 33.7864 18.4405C34.6235 19.8905 33.19 22.3052 30.5571 23.9998C33.19 25.6944 34.6235 28.1092 33.7864 29.5591C33.3342 30.3424 32.3066 31.0878 31.0185 31.0185C31.0877 32.3067 30.3424 33.3342 29.5591 33.7864C28.1091 34.6235 25.6943 33.19 23.9998 30.5571C22.3053 33.1898 19.8911 34.6233 18.4411 33.7864C17.6579 33.3342 16.9125 32.3066 16.9817 31.0185C15.6936 31.0878 14.6661 30.3424 14.2138 29.5591C13.3768 28.1093 14.8094 25.6944 17.4418 23.9998C14.8097 22.3053 13.377 19.891 14.2138 18.4412C14.666 17.6579 15.6937 16.9125 16.9817 16.9818C16.9125 15.6936 17.6578 14.6661 18.4411 14.2139C19.8908 13.3769 22.3052 14.8092 23.9998 17.4412ZM23.9562 23.9998L23.9998 24.0434L24.044 23.9998L24.0004 23.9562L23.9562 23.9998Z" fill="#E0FE08" fill-opacity="0.5"/>
</svg>
