<svg width="41" height="40" viewBox="0 0 41 40" fill="none" xmlns="http://www.w3.org/2000/svg">
<path d="M20.3407 10.0455C20.5728 9.17898 21.4638 8.66489 22.3303 8.89707L30.4663 11.077C31.3325 11.3093 31.8468 12.1997 31.6147 13.0661L28.068 26.3027C27.8358 27.1691 26.9448 27.6831 26.0784 27.4511L25.7247 27.3559L24.0729 21.1915C26.0384 20.1822 27.3355 19.5022 27.6482 18.3353C27.9077 17.3668 27.3508 16.4081 26.3845 16.1491C25.8387 16.0028 25.2465 16.1161 24.7978 16.4224C24.5625 15.9327 24.106 15.5382 23.5601 15.3919C23.203 15.2963 22.8465 15.3114 22.5259 15.4173L21.46 11.4397C21.3011 10.8467 20.8336 10.419 20.2767 10.2823L20.3407 10.0455Z" fill="#0C1423"/>
<path fill-rule="evenodd" clip-rule="evenodd" d="M18.6692 12.5479C19.5357 12.3158 20.4266 12.83 20.6588 13.6963L24.2055 26.9335C24.4375 27.7999 23.9235 28.6904 23.0571 28.9226L14.9211 31.1025C14.0547 31.3347 13.1643 30.8205 12.932 29.9541L9.38482 16.7175C9.15265 15.851 9.66726 14.96 10.5337 14.7279L18.6692 12.5479ZM16.3503 18.3761C16.0601 18.121 15.6038 18.2433 15.48 18.6092L14.2919 22.121C14.222 22.328 14.2832 22.5568 14.4474 22.7011L17.2322 25.148C17.5224 25.403 17.9786 25.2808 18.1024 24.9148L19.29 21.4036C19.36 21.1965 19.2987 20.9673 19.1345 20.823L16.3503 18.3761Z" fill="#0C1423"/>
</svg>
