<svg width="48" height="48" viewBox="0 0 48 48" fill="none" xmlns="http://www.w3.org/2000/svg">
<path fill-rule="evenodd" clip-rule="evenodd" d="M35.837 11.2478C36.4168 10.9933 37.0071 11.5837 36.7526 12.1635L33.244 20.158C33.1384 20.3987 33.2648 20.6778 33.5153 20.7573L35.4104 21.3586C35.8631 21.5023 36.0416 22.0477 35.7613 22.4311C35.7613 22.4311 30.7039 29.7481 28.9532 31.7447C27.2025 33.7413 24.2321 36.8135 20.6004 36.8135C15.4015 36.8135 11.187 32.5989 11.187 27.4C11.187 23.7684 13.2403 20.7268 16.2557 19.0473C19.2711 17.3677 25.5693 12.2392 25.5693 12.2392C25.9528 11.9589 26.4982 12.1373 26.6419 12.5901L27.2432 14.4852C27.3227 14.7357 27.6018 14.862 27.8424 14.7564L35.837 11.2478ZM20.6004 21.9036C17.5648 21.9036 15.104 24.3644 15.104 27.4C15.104 30.4356 17.5648 32.8964 20.6004 32.8964C23.636 32.8964 26.0969 30.4356 26.0969 27.4C26.0969 24.3644 23.636 21.9036 20.6004 21.9036Z" fill="#E0FE08" fill-opacity="0.5"/>
</svg>
