<svg width="48" height="48" viewBox="0 0 48 48" fill="none" xmlns="http://www.w3.org/2000/svg">
<path d="M24.2274 32.4569C24.1504 32.6702 23.8487 32.6702 23.7717 32.4569L19.5738 20.8313C19.5168 20.6734 19.6338 20.5068 19.8017 20.5068H28.1985C28.3664 20.5068 28.4834 20.6735 28.4264 20.8314L24.2274 32.4569Z" fill="#E0FE08" fill-opacity="0.5"/>
<path d="M21.9556 30.8609C22.0485 31.1182 21.7104 31.3082 21.5389 31.095L16.9647 25.4079L13.7344 20.89C13.6198 20.7296 13.7344 20.5068 13.9315 20.5068H18.0468C18.1489 20.5068 18.24 20.5708 18.2747 20.6668L21.9556 30.8609Z" fill="#E0FE08" fill-opacity="0.5"/>
<path d="M31.0355 25.4079L26.4607 31.0938C26.2892 31.3069 25.9511 31.1169 26.0441 30.8596L29.7255 20.6668C29.7602 20.5708 29.8513 20.5068 29.9534 20.5068H34.0687C34.2658 20.5068 34.3804 20.7296 34.2658 20.89L31.0355 25.4079Z" fill="#E0FE08" fill-opacity="0.5"/>
<path d="M17.6789 19.016C17.7359 19.1739 17.6189 19.3406 17.451 19.3406H14.2696C14.0726 19.3406 13.9579 19.1178 14.0725 18.9575L16.1857 16.0009C16.2993 15.8421 16.5444 15.8758 16.6107 16.0594L17.6789 19.016Z" fill="#E0FE08" fill-opacity="0.5"/>
<path d="M33.9276 18.9574C34.0422 19.1178 33.9276 19.3406 33.7305 19.3406H30.5492C30.3813 19.3406 30.2643 19.174 30.3213 19.016L31.389 16.0595C31.4553 15.8759 31.7004 15.8421 31.814 16.0009L33.9276 18.9574Z" fill="#E0FE08" fill-opacity="0.5"/>
<path d="M27.7736 18.927C27.9262 19.0796 27.8181 19.3406 27.6023 19.3406H20.3979C20.1821 19.3406 20.074 19.0796 20.2266 18.927L23.8288 15.3249C23.9234 15.2302 24.0768 15.2302 24.1714 15.3249L27.7736 18.927Z" fill="#E0FE08" fill-opacity="0.5"/>
<path d="M19.0737 18.4303C18.9482 18.5558 18.7348 18.5082 18.6745 18.3413L17.5539 15.2366C17.4969 15.0787 17.6139 14.9121 17.7818 14.9121H22.0075C22.2234 14.9121 22.3315 15.1731 22.1788 15.3257L19.0737 18.4303Z" fill="#E0FE08" fill-opacity="0.5"/>
<path d="M29.3252 18.3413C29.2649 18.5082 29.0515 18.5558 28.926 18.4303L25.8213 15.3257C25.6687 15.1731 25.7768 14.9121 25.9926 14.9121H30.2184C30.3862 14.9121 30.5032 15.0787 30.4462 15.2367L29.3252 18.3413Z" fill="#E0FE08" fill-opacity="0.5"/>
</svg>
