<svg width="48" height="48" viewBox="0 0 48 48" fill="none" xmlns="http://www.w3.org/2000/svg">
<path d="M23.8352 35L28.8402 21.8H31.1502L36.1552 35H33.8452L32.6627 31.645H27.3277L26.1452 35H23.8352ZM15.1452 31.7L13.6052 30.16L19.1602 24.605C18.5185 23.9633 17.9363 23.23 17.4134 22.405C16.8905 21.58 16.4095 20.645 15.9702 19.6H18.2802C18.6469 20.315 19.0135 20.9383 19.3802 21.47C19.7469 22.0017 20.1869 22.5333 20.7002 23.065C21.3052 22.46 21.9333 21.6119 22.5845 20.5207C23.2357 19.4295 23.7259 18.3893 24.0552 17.4H11.8452V15.2H19.5452V13H21.7452V15.2H29.4452V17.4H26.2552C25.8702 18.72 25.2927 20.0767 24.5227 21.47C23.7527 22.8633 22.9919 23.9267 22.2402 24.66L24.8802 27.355L24.0552 29.61L20.7002 26.1725L15.1452 31.7ZM28.0152 29.72H31.9752L29.9952 24.11L28.0152 29.72Z" fill="#E0FE08" fill-opacity="0.5"/>
</svg>
