<svg width="48" height="48" viewBox="0 0 48 48" fill="none" xmlns="http://www.w3.org/2000/svg">
<path d="M23.8091 12.0548C24.0877 11.0151 25.1568 10.3982 26.1966 10.6768L35.9599 13.2927C36.9993 13.5715 37.6164 14.64 37.3379 15.6796L33.0819 31.5635C32.8033 32.6032 31.7341 33.2201 30.6944 32.9416L30.2699 32.8274L28.2878 25.4301C30.6464 24.219 32.2029 23.4029 32.5781 22.0027C32.8895 20.8404 32.2213 19.69 31.0617 19.3792C30.4067 19.2037 29.6961 19.3396 29.1577 19.7072C28.8753 19.1195 28.3275 18.6461 27.6724 18.4706C27.2439 18.3559 26.8161 18.374 26.4314 18.5011L25.1523 13.7279C24.9616 13.0163 24.4007 12.5031 23.7323 12.3391L23.8091 12.0548Z" fill="#E0FE08" fill-opacity="0.5"/>
<path fill-rule="evenodd" clip-rule="evenodd" d="M21.8034 15.0578C22.8431 14.7792 23.9122 15.3963 24.1909 16.4359L28.4469 32.3205C28.7253 33.3601 28.1085 34.4287 27.0689 34.7074L17.3056 37.3233C16.2659 37.6019 15.1974 36.9849 14.9187 35.9452L10.6621 20.0613C10.3835 19.0215 11.001 17.9524 12.0408 17.6737L21.8034 15.0578ZM19.0206 22.0516C18.6724 21.7455 18.1248 21.8922 17.9763 22.3314L16.5506 26.5455C16.4667 26.7939 16.5402 27.0685 16.7371 27.2416L20.0789 30.1779C20.4271 30.4839 20.9747 30.3373 21.1232 29.8981L22.5483 25.6846C22.6323 25.4361 22.5587 25.1611 22.3617 24.9879L19.0206 22.0516Z" fill="#E0FE08" fill-opacity="0.5"/>
</svg>
