<svg width="48" height="48" viewBox="0 0 48 48" fill="none" xmlns="http://www.w3.org/2000/svg">
<path d="M24 12C29.2383 12 33.4847 16.2465 33.4847 21.4847V22.5386H34.5386C35.4116 22.5386 36.1194 23.2463 36.1194 24.1194V29.9156C36.1194 30.7887 35.4116 31.4964 34.5386 31.4964H32.2158C30.9348 33.7103 28.7842 35.3583 26.2312 35.9738C25.611 36.1232 25.0539 35.6217 25.0539 34.9837C25.054 34.451 25.449 34.0074 25.9626 33.866C27.4891 33.4458 28.8162 32.5468 29.7751 31.3415C29.4721 31.1564 29.2693 30.8236 29.2693 30.4425V25.9559C29.2693 25.1174 29.6026 24.313 30.1955 23.7201L31.0683 22.8473C31.1583 22.7573 31.2634 22.6861 31.377 22.6343V21.4847C31.377 17.4105 28.0742 14.1077 24 14.1077C19.9258 14.1077 16.623 17.4105 16.623 21.4847V22.6343C16.7366 22.6861 16.8417 22.7573 16.9317 22.8473L17.8045 23.7201C18.3974 24.313 18.7307 25.1174 18.7307 25.9559V30.4425C18.7307 31.0246 18.2589 31.4964 17.6768 31.4964H13.4614C12.5884 31.4964 11.8806 30.7887 11.8806 29.9156V24.1194C11.8806 23.2463 12.5884 22.5386 13.4614 22.5386H14.5153V21.4847C14.5153 16.2465 18.7617 12 24 12Z" fill="#E0FE08" fill-opacity="0.5"/>
<path d="M24.0674 15.9396C24.9315 15.9539 25.7772 16.1919 26.522 16.6302C27.2667 17.0684 27.8852 17.6922 28.3173 18.4405L27.2002 19.0858C26.8795 18.5304 26.4206 18.0675 25.8679 17.7422C25.3151 17.4169 24.6871 17.2403 24.0458 17.2297C23.4046 17.2191 22.7714 17.3747 22.2082 17.6815C21.645 17.9883 21.1706 18.4358 20.8317 18.9803L19.7367 18.2985C20.1934 17.5648 20.8323 16.9617 21.5913 16.5484C22.3502 16.135 23.2033 15.9253 24.0674 15.9396Z" fill="#E0FE08" fill-opacity="0.5"/>
</svg>
