<svg width="48" height="48" viewBox="0 0 48 48" fill="none" xmlns="http://www.w3.org/2000/svg">
<path d="M33.3381 26.3796C33.3381 29.2618 30.8531 30.5821 29.1347 30.583C27.2185 30.583 25.7707 29.7151 24.9088 29.0064C25.0052 30.995 25.419 32.5019 27.0619 33.7182C27.3087 33.9009 27.1892 34.3447 26.8821 34.3447H21.1181C20.811 34.3447 20.6915 33.9009 20.9383 33.7182C22.5812 32.5019 22.9951 30.995 23.0915 29.0064C22.2295 29.7147 20.7813 30.584 18.8655 30.583C17.1495 30.583 14.6621 29.2618 14.6621 26.3796C14.6621 21.1917 18.2613 22.5034 23.7451 14.0534C23.8628 13.872 24.137 13.872 24.2547 14.0534C29.7389 22.5034 33.3381 21.1922 33.3381 26.3796Z" fill="#E0FE08" fill-opacity="0.5"/>
</svg>
