<svg width="48" height="48" viewBox="0 0 48 48" fill="none" xmlns="http://www.w3.org/2000/svg">
<path d="M36.2608 13.0116C36.8889 12.913 37.4311 13.4561 37.3322 14.0842L35.8325 23.5839C35.7131 24.3404 34.7858 24.6421 34.2442 24.1009L32.5998 22.4566L27.6574 27.399V34.1679C27.6571 34.6276 27.2839 34.9998 26.8241 35H20.9924C20.5325 34.9999 20.1594 34.6277 20.1591 34.1679V27.2169L15.3987 22.4566L13.7555 24.1009C13.214 24.6424 12.287 24.3412 12.1671 23.5851L10.6675 14.0842C10.5685 13.4559 11.1106 12.9139 11.7388 13.0128L21.2398 14.5125C21.996 14.6323 22.2971 15.5593 21.7556 16.1008L20.1112 17.744L23.9987 21.6315L27.8873 17.744L26.2441 16.1008C25.7026 15.5593 26.0036 14.6322 26.7599 14.5125L36.2608 13.0116Z" fill="#E0FE08" fill-opacity="0.5"/>
</svg>
