<svg width="241" height="48" viewBox="0 0 241 48" fill="none" xmlns="http://www.w3.org/2000/svg">
<path d="M48.2608 13.0116C48.8889 12.913 49.4311 13.4561 49.3322 14.0842L47.8325 23.5839C47.7131 24.3404 46.7858 24.6421 46.2442 24.1009L44.5998 22.4566L39.6574 27.399V34.1679C39.6571 34.6276 39.2839 34.9998 38.8241 35H32.9924C32.5325 34.9999 32.1594 34.6277 32.1591 34.1679V27.2169L27.3987 22.4566L25.7555 24.1009C25.214 24.6424 24.287 24.3412 24.1671 23.5851L22.6675 14.0842C22.5685 13.4559 23.1106 12.9139 23.7388 13.0128L33.2398 14.5125C33.996 14.6323 34.2971 15.5593 33.7556 16.1008L32.1112 17.744L35.9987 21.6315L39.8873 17.744L38.2441 16.1008C37.7026 15.5593 38.0036 14.6322 38.7599 14.5125L48.2608 13.0116Z" fill="#E0FE08" fill-opacity="0.5"/>
<path d="M73.274 29V19.2H74.793L78.79 25.703L78.181 25.71L82.031 19.2H83.522V29H81.989L82.01 21.286L82.311 21.391L78.979 26.886H77.831L74.436 21.391L74.688 21.286L74.709 29H73.274ZM89.0319 29.21C88.2852 29.21 87.6295 29.0583 87.0649 28.755C86.5002 28.447 86.0592 28.0177 85.7419 27.467C85.4292 26.9163 85.2729 26.277 85.2729 25.549C85.2729 25.017 85.3639 24.527 85.5459 24.079C85.7279 23.6263 85.9845 23.2343 86.3159 22.903C86.6472 22.5717 87.0345 22.315 87.4779 22.133C87.9259 21.951 88.4135 21.86 88.9409 21.86C89.5149 21.86 90.0259 21.9627 90.4739 22.168C90.9219 22.3687 91.2929 22.651 91.5869 23.015C91.8855 23.379 92.0955 23.806 92.2169 24.296C92.3429 24.7813 92.3639 25.3087 92.2799 25.878H86.7499C86.7405 26.2933 86.8315 26.6573 87.0229 26.97C87.2142 27.278 87.4872 27.5183 87.8419 27.691C88.2012 27.8637 88.6235 27.95 89.1089 27.95C89.5009 27.95 89.8789 27.8917 90.2429 27.775C90.6115 27.6537 90.9452 27.4763 91.2439 27.243L91.8389 28.349C91.6149 28.531 91.3442 28.6873 91.0269 28.818C90.7095 28.944 90.3782 29.0397 90.0329 29.105C89.6875 29.175 89.3539 29.21 89.0319 29.21ZM86.8409 24.744H90.7679C90.7539 24.2213 90.5859 23.8107 90.2639 23.512C89.9465 23.2133 89.4939 23.064 88.9059 23.064C88.3365 23.064 87.8629 23.2133 87.4849 23.512C87.1115 23.8107 86.8969 24.2213 86.8409 24.744ZM96.6096 32.15C96.0916 32.15 95.6249 32.1033 95.2096 32.01C94.7943 31.9213 94.4396 31.7907 94.1456 31.618C93.8563 31.4453 93.6346 31.2377 93.4806 30.995C93.3266 30.7523 93.2496 30.4817 93.2496 30.183C93.2496 29.945 93.3126 29.721 93.4386 29.511C93.5693 29.301 93.7606 29.1213 94.0126 28.972C94.2693 28.818 94.5819 28.7037 94.9506 28.629C94.6753 28.489 94.4699 28.3303 94.3346 28.153C94.2039 27.9757 94.1386 27.7727 94.1386 27.544C94.1386 27.348 94.1946 27.1637 94.3066 26.991C94.4233 26.8137 94.5866 26.6573 94.7966 26.522C95.0113 26.382 95.2633 26.2677 95.5526 26.179C95.8419 26.0903 96.1616 26.039 96.5116 26.025L96.8476 26.697C96.5583 26.6923 96.3109 26.7157 96.1056 26.767C95.9049 26.8137 95.7486 26.8813 95.6366 26.97C95.5293 27.054 95.4756 27.1567 95.4756 27.278C95.4756 27.4367 95.5666 27.5533 95.7486 27.628C95.9306 27.698 96.1873 27.747 96.5186 27.775L97.7086 27.866C98.2919 27.9127 98.7889 28.0083 99.1996 28.153C99.6149 28.2977 99.9323 28.5007 100.152 28.762C100.376 29.0233 100.488 29.3547 100.488 29.756C100.488 30.0967 100.394 30.4117 100.208 30.701C100.026 30.995 99.7619 31.2493 99.4166 31.464C99.0759 31.6787 98.6676 31.8467 98.1916 31.968C97.7156 32.0893 97.1883 32.15 96.6096 32.15ZM96.7636 31.086C97.4589 31.086 98.0049 30.981 98.4016 30.771C98.8029 30.5657 99.0036 30.2973 99.0036 29.966C99.0036 29.714 98.8706 29.518 98.6046 29.378C98.3386 29.238 97.9326 29.1493 97.3866 29.112L96.1126 29.014C95.8139 29.0373 95.5549 29.0933 95.3356 29.182C95.1209 29.2707 94.9576 29.385 94.8456 29.525C94.7336 29.665 94.6776 29.8237 94.6776 30.001C94.6776 30.2157 94.7616 30.4047 94.9296 30.568C95.0976 30.7313 95.3379 30.8573 95.6506 30.946C95.9633 31.0393 96.3343 31.086 96.7636 31.086ZM96.7146 26.802C96.1359 26.802 95.6156 26.6923 95.1536 26.473C94.6963 26.2537 94.3346 25.9573 94.0686 25.584C93.8026 25.2107 93.6696 24.793 93.6696 24.331C93.6696 23.869 93.8026 23.4513 94.0686 23.078C94.3393 22.7047 94.7033 22.4083 95.1606 22.189C95.6226 21.9697 96.1406 21.86 96.7146 21.86C97.2886 21.86 97.8043 21.9697 98.2616 22.189C98.7189 22.4083 99.0806 22.7047 99.3466 23.078C99.6173 23.4513 99.7526 23.869 99.7526 24.331C99.7526 24.7883 99.6196 25.2037 99.3536 25.577C99.0876 25.9503 98.7259 26.249 98.2686 26.473C97.8113 26.6923 97.2933 26.802 96.7146 26.802ZM96.7146 25.647C97.0319 25.647 97.3143 25.5933 97.5616 25.486C97.8089 25.374 98.0026 25.22 98.1426 25.024C98.2826 24.8233 98.3526 24.5923 98.3526 24.331C98.3526 23.939 98.1986 23.6217 97.8906 23.379C97.5873 23.1317 97.1953 23.008 96.7146 23.008C96.3926 23.008 96.1079 23.064 95.8606 23.176C95.6179 23.288 95.4266 23.4443 95.2866 23.645C95.1466 23.841 95.0766 24.0697 95.0766 24.331C95.0766 24.7183 95.2283 25.0357 95.5316 25.283C95.8396 25.5257 96.2339 25.647 96.7146 25.647ZM97.7926 23.288L97.2186 22.217L100.936 22.07L100.922 23.344L97.7926 23.288ZM104.185 29.21C103.705 29.21 103.282 29.1213 102.918 28.944C102.554 28.762 102.27 28.5077 102.064 28.181C101.864 27.8497 101.763 27.46 101.763 27.012C101.763 26.634 101.859 26.2933 102.05 25.99C102.242 25.682 102.538 25.4277 102.939 25.227C103.345 25.0263 103.866 24.8933 104.5 24.828C105.135 24.758 105.898 24.7673 106.789 24.856L106.817 25.92C106.183 25.8313 105.637 25.794 105.179 25.808C104.722 25.822 104.346 25.8803 104.052 25.983C103.763 26.081 103.548 26.214 103.408 26.382C103.273 26.5453 103.205 26.7343 103.205 26.949C103.205 27.285 103.324 27.544 103.562 27.726C103.805 27.908 104.136 27.999 104.556 27.999C104.916 27.999 105.238 27.9337 105.522 27.803C105.807 27.6723 106.031 27.488 106.194 27.25C106.362 27.012 106.446 26.732 106.446 26.41V24.569C106.446 24.261 106.381 23.995 106.25 23.771C106.12 23.5423 105.921 23.365 105.655 23.239C105.389 23.113 105.058 23.05 104.661 23.05C104.297 23.05 103.938 23.106 103.583 23.218C103.229 23.3253 102.89 23.4957 102.568 23.729L102.134 22.595C102.568 22.301 103.021 22.0933 103.492 21.972C103.964 21.8507 104.416 21.79 104.85 21.79C105.494 21.79 106.045 21.8927 106.502 22.098C106.964 22.2987 107.319 22.6043 107.566 23.015C107.814 23.421 107.937 23.9343 107.937 24.555V29H106.551V28.181C106.318 28.5123 105.994 28.7667 105.578 28.944C105.163 29.1213 104.699 29.21 104.185 29.21ZM111.157 29L108.98 22.07H110.513L111.997 27.222L113.621 22.07H115.126L116.645 27.222L118.157 22.07H119.62L117.443 29H115.854L114.328 24.023L112.746 29H111.157ZM122.82 29.21C122.34 29.21 121.917 29.1213 121.553 28.944C121.189 28.762 120.905 28.5077 120.699 28.181C120.499 27.8497 120.398 27.46 120.398 27.012C120.398 26.634 120.494 26.2933 120.685 25.99C120.877 25.682 121.173 25.4277 121.574 25.227C121.98 25.0263 122.501 24.8933 123.135 24.828C123.77 24.758 124.533 24.7673 125.424 24.856L125.452 25.92C124.818 25.8313 124.272 25.794 123.814 25.808C123.357 25.822 122.981 25.8803 122.687 25.983C122.398 26.081 122.183 26.214 122.043 26.382C121.908 26.5453 121.84 26.7343 121.84 26.949C121.84 27.285 121.959 27.544 122.197 27.726C122.44 27.908 122.771 27.999 123.191 27.999C123.551 27.999 123.873 27.9337 124.157 27.803C124.442 27.6723 124.666 27.488 124.829 27.25C124.997 27.012 125.081 26.732 125.081 26.41V24.569C125.081 24.261 125.016 23.995 124.885 23.771C124.755 23.5423 124.556 23.365 124.29 23.239C124.024 23.113 123.693 23.05 123.296 23.05C122.932 23.05 122.573 23.106 122.218 23.218C121.864 23.3253 121.525 23.4957 121.203 23.729L120.769 22.595C121.203 22.301 121.656 22.0933 122.127 21.972C122.599 21.8507 123.051 21.79 123.485 21.79C124.129 21.79 124.68 21.8927 125.137 22.098C125.599 22.2987 125.954 22.6043 126.201 23.015C126.449 23.421 126.572 23.9343 126.572 24.555V29H125.186V28.181C124.953 28.5123 124.629 28.7667 124.213 28.944C123.798 29.1213 123.334 29.21 122.82 29.21ZM129.078 32.136C128.826 32.136 128.579 32.108 128.336 32.052C128.093 31.996 127.855 31.9003 127.622 31.765L127.972 30.449C128.117 30.5423 128.275 30.6123 128.448 30.659C128.621 30.7057 128.775 30.729 128.91 30.729C129.237 30.729 129.493 30.652 129.68 30.498C129.867 30.344 130.014 30.106 130.121 29.784L130.352 29.112L127.622 22.07H129.309L131.227 27.446L133.096 22.07H134.727L131.731 30.001C131.516 30.5563 131.276 30.988 131.01 31.296C130.744 31.6087 130.45 31.8257 130.128 31.947C129.806 32.073 129.456 32.136 129.078 32.136ZM138.272 29.203C137.698 29.203 137.162 29.1213 136.662 28.958C136.163 28.7947 135.743 28.5753 135.402 28.3L135.983 27.173C136.305 27.425 136.667 27.6233 137.068 27.768C137.474 27.9127 137.873 27.985 138.265 27.985C138.718 27.985 139.07 27.9057 139.322 27.747C139.574 27.5883 139.7 27.3667 139.7 27.082C139.7 26.8113 139.591 26.613 139.371 26.487C139.157 26.3563 138.746 26.221 138.139 26.081C137.267 25.899 136.632 25.6423 136.235 25.311C135.843 24.975 135.647 24.5107 135.647 23.918C135.647 23.5027 135.762 23.1363 135.99 22.819C136.224 22.497 136.543 22.245 136.949 22.063C137.355 21.881 137.824 21.79 138.356 21.79C138.874 21.79 139.362 21.8647 139.819 22.014C140.277 22.1587 140.673 22.364 141.009 22.63L140.463 23.764C140.291 23.61 140.09 23.477 139.861 23.365C139.633 23.253 139.39 23.1667 139.133 23.106C138.881 23.0407 138.629 23.008 138.377 23.008C137.985 23.008 137.666 23.085 137.418 23.239C137.176 23.3883 137.054 23.596 137.054 23.862C137.054 24.1373 137.171 24.3403 137.404 24.471C137.638 24.6017 138.039 24.7323 138.608 24.863C139.504 25.059 140.146 25.3203 140.533 25.647C140.921 25.9737 141.114 26.4263 141.114 27.005C141.114 27.4483 140.995 27.8357 140.757 28.167C140.519 28.4937 140.186 28.748 139.756 28.93C139.332 29.112 138.837 29.203 138.272 29.203Z" fill="#E0FE08" fill-opacity="0.5"/>
</svg>
