<svg width="48" height="48" viewBox="0 0 48 48" fill="none" xmlns="http://www.w3.org/2000/svg">
<path d="M30.1443 31.9098C31.3488 30.2713 32.38 28.3569 32.2521 26.3152C32.1696 25.0248 31.5179 23.7853 30.8414 22.7283C30.1113 21.5907 29.2162 20.5762 28.3212 19.5702C27.6571 18.8231 26.9517 18.0845 26.5475 17.1507C26.2051 16.3526 26.1185 15.4952 26.036 14.6335C25.9989 14.2387 26.0113 13.6402 25.5946 13.4407C25.3307 13.3134 24.9883 13.4025 24.7326 13.4959C23.8705 13.8015 23.1404 14.5316 22.6 15.2617C21.9359 16.1489 21.4327 16.9894 21.1398 18.0633C20.9253 18.8656 20.7521 19.9862 20.8676 20.8224C20.9666 21.544 21.1316 22.2529 21.2347 22.9745C21.3296 23.6282 21.4533 24.3668 21.2842 25.0205C21.1275 25.6275 20.5995 25.9332 20.0014 25.7803C19.3043 25.6063 18.8341 24.9144 18.5206 24.3032C18.2195 23.7174 17.9885 23.0807 17.8936 22.4227C17.84 22.0577 17.84 21.6799 17.7616 21.3191C17.7492 21.2511 17.7368 21.1323 17.6956 21.0771C17.6832 21.0644 17.6791 21.0516 17.6709 21.0474C17.5677 21.0601 17.3821 21.2087 17.3202 21.2554C16.1199 22.1383 15.8064 23.9933 15.7487 25.4068C15.6868 26.8755 15.8642 28.5692 16.6066 29.8851C16.6726 30.0039 16.7015 30.0931 16.7593 30.1737C18.4504 32.8734 21.1192 34.6223 24.1262 34.6223C26.4237 34.6223 28.5274 33.5993 30.1443 31.9141V31.9098Z" fill="#E0FE08" fill-opacity="0.5"/>
</svg>
