<svg width="48" height="48" viewBox="0 0 48 48" fill="none" xmlns="http://www.w3.org/2000/svg">
<path d="M22.6299 15.0736C23.1585 13.8879 24.8415 13.8879 25.3701 15.0736L26.9629 18.6469C27.1809 19.136 27.643 19.4718 28.1755 19.528L32.0662 19.9386C33.3572 20.0749 33.8773 21.6755 32.9129 22.5446L30.0066 25.1637C29.6089 25.5221 29.4324 26.0654 29.5435 26.5892L30.3552 30.4163C30.6246 31.6863 29.263 32.6755 28.1384 32.0269L24.7494 30.0723C24.2856 29.8047 23.7144 29.8047 23.2506 30.0723L19.8616 32.0269C18.737 32.6755 17.3754 31.6863 17.6448 30.4163L18.4565 26.5892C18.5676 26.0654 18.3911 25.5221 17.9934 25.1637L15.0871 22.5446C14.1227 21.6755 14.6428 20.0749 15.9338 19.9386L19.8245 19.528C20.357 19.4718 20.8191 19.136 21.0371 18.6469L22.6299 15.0736Z" fill="#E0FE08" fill-opacity="0.5"/>
</svg>
