<svg width="48" height="48" viewBox="0 0 48 48" fill="none" xmlns="http://www.w3.org/2000/svg">
<path d="M23.0178 32.3264C23.0178 32.5073 22.8712 32.6539 22.6903 32.6539H17.1238C16.7621 32.6539 16.4689 32.3607 16.4689 31.999V23.8129C16.4689 23.6321 16.3223 23.4855 16.1415 23.4855C15.7798 23.4855 15.4866 23.1923 15.4866 22.8306V20.8659C15.4866 20.5043 15.7798 20.2111 16.1415 20.2111H22.6903C22.8712 20.2111 23.0178 20.3577 23.0178 20.5385V32.3264Z" fill="#E0FE08" fill-opacity="0.5"/>
<path d="M31.8587 20.2111C32.2204 20.2111 32.5136 20.5043 32.5136 20.8659V22.8306C32.5136 23.1923 32.2204 23.4855 31.8587 23.4855C31.6779 23.4855 31.5313 23.6321 31.5313 23.8129V31.999C31.5313 32.3607 31.2381 32.6539 30.8764 32.6539H25.3099C25.129 32.6539 24.9824 32.5073 24.9824 32.3264V20.5385C24.9824 20.3577 25.129 20.2111 25.3099 20.2111H31.8587Z" fill="#E0FE08" fill-opacity="0.5"/>
<path d="M27.3431 15.3462C28.4075 15.3463 29.2704 16.2436 29.2704 17.3503C29.2703 18.4568 28.4074 19.3538 27.3431 19.3539C26.6303 19.3539 24.9655 19.4009 23.9736 19.3987C22.9154 19.4008 21.1405 19.3539 20.3803 19.3539C19.245 19.3539 18.3245 18.4569 18.3244 17.3503C18.3244 16.2435 19.2449 15.3462 20.3803 15.3462C21.3667 15.3462 21.4752 15.6904 23.6639 18.1052C23.8273 18.2855 24.1146 18.2809 24.2722 18.0954C26.3164 15.6892 26.4196 15.3462 27.3431 15.3462Z" fill="#E0FE08" fill-opacity="0.5"/>
</svg>
