<svg width="48" height="48" viewBox="0 0 48 48" fill="none" xmlns="http://www.w3.org/2000/svg">
<path d="M32.1052 30.9474C32.7447 30.9474 33.2631 31.4658 33.2631 32.1053V33.8421C33.2631 34.4816 32.7447 35 32.1052 35H15.8947C15.2552 35 14.7368 34.4816 14.7368 33.8421V32.1053C14.7368 31.4658 15.2552 30.9474 15.8947 30.9474H32.1052Z" fill="#E0FE08" fill-opacity="0.5"/>
<path d="M24 13C26.5579 13 28.6316 15.0736 28.6316 17.6316C28.6316 19.7897 27.1554 21.6025 25.1579 22.1167V26.8947H28.0526C28.6921 26.8947 29.2105 27.4131 29.2105 28.0526V29.7895H18.7894V28.0526C18.7894 27.4131 19.3079 26.8947 19.9473 26.8947H22.8421V22.1167C20.8445 21.6025 19.3684 19.7897 19.3684 17.6316C19.3684 15.0736 21.442 13 24 13Z" fill="#E0FE08" fill-opacity="0.5"/>
</svg>
