<svg width="48" height="48" viewBox="0 0 48 48" fill="none" xmlns="http://www.w3.org/2000/svg">
<path fill-rule="evenodd" clip-rule="evenodd" d="M21.6184 12.6733C23.0922 11.8224 24.9078 11.8224 26.3816 12.6733L32.6184 16.2743C34.092 17.1251 34.9999 18.6971 35 20.3986V27.6007C35 29.3024 34.0921 30.875 32.6184 31.7258L26.3816 35.3268C24.9079 36.1776 23.0921 36.1776 21.6184 35.3268L15.3816 31.7258C13.9079 30.875 13 29.3024 13 27.6007V20.3986C13.0001 18.6971 13.908 17.1251 15.3816 16.2743L21.6184 12.6733ZM24 20.0304C21.8079 20.0304 20.0308 21.8076 20.0307 23.9997C20.0307 26.1918 21.8078 27.9689 24 27.9689C26.1922 27.9689 27.9693 26.1918 27.9693 23.9997C27.9692 21.8076 26.1921 20.0304 24 20.0304Z" fill="#E0FE08" fill-opacity="0.5"/>
</svg>
