<svg width="48" height="48" viewBox="0 0 48 48" fill="none" xmlns="http://www.w3.org/2000/svg">
<path d="M20.5 11.4864C24.6169 9.89918 29.218 11.7967 31.0566 15.7354H31.5C31.6901 15.7354 31.8803 15.8072 32.0264 15.9512C32.3214 16.2419 32.3249 16.7167 32.0342 17.0117L31.4863 17.5674C29.4124 19.6722 28.25 22.509 28.25 25.4639V25.9063C31.1789 26.0811 33.5 28.5126 33.5 31.4854C33.4999 34.5715 30.9983 37.0732 27.9121 37.0733C24.8259 37.0733 22.3234 34.5716 22.3232 31.4854C22.3232 28.7976 24.2213 26.5525 26.75 26.0176V25.4639C26.75 22.4414 27.8235 19.5283 29.7607 17.2354H29.5C24.5882 17.2354 20.5717 21.0638 20.2695 25.8994C21.3192 25.9331 22.2958 26.2577 23.1221 26.793C21.9372 28.0023 21.2062 29.6586 21.2061 31.4854C21.2062 33.3119 21.9375 34.9675 23.1221 36.1768C22.2482 36.7431 21.2067 37.0742 20.0879 37.0742C17.0019 37.0741 14.5003 34.5713 14.5 31.4854C14.5002 28.857 16.3149 26.6521 18.7598 26.0557C18.9334 21.6372 21.7732 17.9052 25.7158 16.4219C23.4064 15.6728 21.4414 13.9282 20.5 11.4864ZM19.5 27.4854C19.106 27.4854 18.7155 27.5631 18.3516 27.7139C17.9877 27.8647 17.6574 28.0858 17.3789 28.3643C17.1004 28.6428 16.8793 28.9731 16.7285 29.3369C16.5778 29.7009 16.5 30.0914 16.5 30.4854H17.7236C17.7236 30.2522 17.7692 30.0212 17.8584 29.8057C17.9477 29.5902 18.0792 29.3945 18.2441 29.2295C18.4091 29.0645 18.6048 28.9331 18.8203 28.8438C19.0358 28.7546 19.2668 28.709 19.5 28.709V27.4854ZM27.5 27.4854C27.106 27.4854 26.7155 27.5631 26.3516 27.7139C25.9877 27.8647 25.6574 28.0858 25.3789 28.3643C25.1004 28.6428 24.8793 28.9731 24.7285 29.3369C24.5778 29.7009 24.5 30.0914 24.5 30.4854H25.7236C25.7236 30.2522 25.7692 30.0212 25.8584 29.8057C25.9477 29.5902 26.0792 29.3945 26.2441 29.2295C26.4091 29.0645 26.6048 28.9331 26.8203 28.8438C27.0358 28.7546 27.2668 28.709 27.5 28.709V27.4854Z" fill="#E0FE08" fill-opacity="0.5"/>
</svg>
