<svg width="41" height="40" viewBox="0 0 41 40" fill="none" xmlns="http://www.w3.org/2000/svg">
<path d="M26.3918 14.1075C25.6204 13.3302 24.7024 12.7136 23.6911 12.2934C22.6799 11.8731 21.5953 11.6576 20.5001 11.6592C19.4047 11.6573 18.3198 11.8728 17.3082 12.293C16.2966 12.7133 15.3784 13.33 14.6068 14.1075C11.3576 17.3559 11.3576 22.6434 14.6068 25.8925C15.3785 26.6701 16.2969 27.2869 17.3086 27.7072C18.3203 28.1274 19.4054 28.3428 20.501 28.3409C21.596 28.3426 22.6806 28.1272 23.6919 27.7071C24.7032 27.287 25.6211 26.6705 26.3926 25.8934C29.6418 22.645 29.6418 17.3575 26.3918 14.1075ZM25.7018 24.1667H23.8326L22.7843 26.2634C22.0528 26.5328 21.2797 26.6718 20.5001 26.6742C19.7191 26.6721 18.9446 26.5327 18.2118 26.2625L17.166 24.175H15.3035C14.6163 23.3208 14.1516 22.3095 13.951 21.2317L15.4993 19.1667L14.486 17.1392C14.8102 16.4519 15.2496 15.8251 15.7851 15.2859C16.5359 14.5327 17.456 13.9701 18.4685 13.645L20.4993 15L22.531 13.6459C23.5434 13.9707 24.4634 14.533 25.2143 15.2859C25.7493 15.8244 26.1884 16.4503 26.5126 17.1367L25.4993 19.1667L27.0476 21.2317C26.8479 22.306 26.3856 23.3143 25.7018 24.1667Z" fill="#0C1423"/>
<path d="M17.5825 19.1665L18.8325 22.4998H22.1659L23.4159 19.1665L20.4992 17.0832L17.5825 19.1665Z" fill="#0C1423"/>
</svg>
