<svg width="241" height="48" viewBox="0 0 241 48" fill="none" xmlns="http://www.w3.org/2000/svg">
<path d="M45.8 24C45.8 17.9104 40.3078 14.2 36 14.2C31.6922 14.2 26.2 18 26.2 24C26.2 30.5 31.6922 33.8 36 33.8C40.3078 33.8 45.8 30.0896 45.8 24ZM49 24C49 31.1797 43.1797 37 36 37C28.8203 37 23 31.1797 23 24C23 16.8203 28.8203 11 36 11C43.1797 11 49 16.8203 49 24Z" fill="#E0FE08" fill-opacity="0.5"/>
<path d="M35.8984 28.4205C35.2323 28.4205 34.6397 28.3123 34.1207 28.0961C33.6045 27.8769 33.1994 27.5785 32.9053 27.2007C32.6112 26.823 32.4641 26.3948 32.4641 25.9161C32.4641 25.547 32.5477 25.2082 32.715 24.8997C32.8851 24.5882 33.1158 24.3302 33.407 24.1254C33.6983 23.9178 34.0241 23.7852 34.3845 23.7275V23.6669C33.9116 23.5718 33.5281 23.3425 33.234 22.9792C32.9399 22.613 32.7928 22.1877 32.7928 21.7032C32.7928 21.2448 32.9269 20.8367 33.1951 20.4792C33.4632 20.1187 33.8309 19.8362 34.298 19.6314C34.7681 19.4238 35.3015 19.32 35.8984 19.32C36.4953 19.32 37.0273 19.4238 37.4944 19.6314C37.9645 19.839 38.3335 20.1231 38.6017 20.4835C38.8699 20.8411 39.0054 21.2476 39.0083 21.7032C39.0054 22.1906 38.8555 22.6159 38.5585 22.9792C38.2615 23.3425 37.8808 23.5718 37.4166 23.6669V23.7275C37.7713 23.7852 38.0928 23.9178 38.3811 24.1254C38.6724 24.3302 38.903 24.5882 39.0732 24.8997C39.2462 25.2082 39.3341 25.547 39.337 25.9161C39.3341 26.3948 39.1856 26.823 38.8915 27.2007C38.5974 27.5785 38.1908 27.8769 37.6718 28.0961C37.1556 28.3123 36.5645 28.4205 35.8984 28.4205ZM35.8984 27.045C36.1954 27.045 36.4549 26.9917 36.677 26.885C36.899 26.7754 37.072 26.6255 37.196 26.4351C37.3229 26.2419 37.3863 26.0199 37.3863 25.769C37.3863 25.5124 37.3214 25.286 37.1917 25.09C37.0619 24.891 36.886 24.7353 36.664 24.6228C36.4419 24.5075 36.1868 24.4498 35.8984 24.4498C35.6129 24.4498 35.3577 24.5075 35.1328 24.6228C34.9079 24.7353 34.7306 24.891 34.6008 25.09C34.4739 25.286 34.4105 25.5124 34.4105 25.769C34.4105 26.0199 34.4725 26.2419 34.5965 26.4351C34.7205 26.6255 34.8949 26.7754 35.1198 26.885C35.3448 26.9917 35.6043 27.045 35.8984 27.045ZM35.8984 23.0873C36.1464 23.0873 36.367 23.0369 36.5602 22.936C36.7534 22.835 36.9048 22.6952 37.0143 22.5164C37.1239 22.3376 37.1787 22.1315 37.1787 21.8979C37.1787 21.6672 37.1239 21.4654 37.0143 21.2923C36.9048 21.1164 36.7548 20.9795 36.5645 20.8814C36.3742 20.7805 36.1521 20.7301 35.8984 20.7301C35.6475 20.7301 35.4255 20.7805 35.2323 20.8814C35.0391 20.9795 34.8877 21.1164 34.7781 21.2923C34.6715 21.4654 34.6181 21.6672 34.6181 21.8979C34.6181 22.1315 34.6729 22.3376 34.7825 22.5164C34.892 22.6952 35.0434 22.835 35.2366 22.936C35.4298 23.0369 35.6504 23.0873 35.8984 23.0873Z" fill="#E0FE08" fill-opacity="0.5"/>
<path d="M75.136 29V20.635H72.378V19.2H79.462V20.635H76.704V29H75.136ZM82.2968 29.21C81.8161 29.21 81.3938 29.1213 81.0298 28.944C80.6658 28.762 80.3811 28.5077 80.1758 28.181C79.9751 27.8497 79.8748 27.46 79.8748 27.012C79.8748 26.634 79.9704 26.2933 80.1618 25.99C80.3531 25.682 80.6494 25.4277 81.0508 25.227C81.4568 25.0263 81.9771 24.8933 82.6118 24.828C83.2464 24.758 84.0094 24.7673 84.9008 24.856L84.9288 25.92C84.2941 25.8313 83.7481 25.794 83.2908 25.808C82.8334 25.822 82.4578 25.8803 82.1638 25.983C81.8744 26.081 81.6598 26.214 81.5198 26.382C81.3844 26.5453 81.3168 26.7343 81.3168 26.949C81.3168 27.285 81.4358 27.544 81.6738 27.726C81.9164 27.908 82.2478 27.999 82.6678 27.999C83.0271 27.999 83.3491 27.9337 83.6338 27.803C83.9184 27.6723 84.1424 27.488 84.3058 27.25C84.4738 27.012 84.5578 26.732 84.5578 26.41V24.569C84.5578 24.261 84.4924 23.995 84.3618 23.771C84.2311 23.5423 84.0328 23.365 83.7668 23.239C83.5008 23.113 83.1694 23.05 82.7728 23.05C82.4088 23.05 82.0494 23.106 81.6948 23.218C81.3401 23.3253 81.0018 23.4957 80.6798 23.729L80.2458 22.595C80.6798 22.301 81.1324 22.0933 81.6038 21.972C82.0751 21.8507 82.5278 21.79 82.9618 21.79C83.6058 21.79 84.1564 21.8927 84.6138 22.098C85.0758 22.2987 85.4304 22.6043 85.6778 23.015C85.9251 23.421 86.0488 23.9343 86.0488 24.555V29H84.6628V28.181C84.4294 28.5123 84.1051 28.7667 83.6898 28.944C83.2744 29.1213 82.8101 29.21 82.2968 29.21ZM92.1284 29.21C91.6664 29.21 91.2487 29.1423 90.8754 29.007C90.5067 28.8717 90.1871 28.685 89.9164 28.447C89.6457 28.2043 89.4264 27.9267 89.2584 27.614L89.4824 27.271V29H88.0964V18.92H89.6294V23.666L89.3144 23.323C89.6224 22.875 90.0074 22.5203 90.4694 22.259C90.9314 21.993 91.4774 21.86 92.1074 21.86C92.7981 21.86 93.4047 22.0257 93.9274 22.357C94.4547 22.6837 94.8654 23.1247 95.1594 23.68C95.4534 24.2353 95.6004 24.8537 95.6004 25.535C95.6004 26.0623 95.5141 26.55 95.3414 26.998C95.1734 27.446 94.9354 27.8357 94.6274 28.167C94.3194 28.4937 93.9531 28.7503 93.5284 28.937C93.1037 29.119 92.6371 29.21 92.1284 29.21ZM91.8484 27.845C92.2731 27.845 92.6511 27.7517 92.9824 27.565C93.3184 27.3737 93.5821 27.1053 93.7734 26.76C93.9647 26.4147 94.0604 26.0063 94.0604 25.535C94.0604 25.0637 93.9647 24.6553 93.7734 24.31C93.5867 23.96 93.3254 23.6917 92.9894 23.505C92.6581 23.3183 92.2777 23.225 91.8484 23.225C91.4191 23.225 91.0364 23.3183 90.7004 23.505C90.3691 23.6917 90.1077 23.96 89.9164 24.31C89.7251 24.6553 89.6294 25.0637 89.6294 25.535C89.6294 26.0063 89.7251 26.4147 89.9164 26.76C90.1077 27.1053 90.3691 27.3737 90.7004 27.565C91.0364 27.7517 91.4191 27.845 91.8484 27.845ZM97.1472 29V18.92H98.6872V29H97.1472ZM103.989 29.21C103.242 29.21 102.587 29.0583 102.022 28.755C101.457 28.447 101.016 28.0177 100.699 27.467C100.386 26.9163 100.23 26.277 100.23 25.549C100.23 25.017 100.321 24.527 100.503 24.079C100.685 23.6263 100.942 23.2343 101.273 22.903C101.604 22.5717 101.992 22.315 102.435 22.133C102.883 21.951 103.371 21.86 103.898 21.86C104.472 21.86 104.983 21.9627 105.431 22.168C105.879 22.3687 106.25 22.651 106.544 23.015C106.843 23.379 107.053 23.806 107.174 24.296C107.3 24.7813 107.321 25.3087 107.237 25.878H101.707C101.698 26.2933 101.789 26.6573 101.98 26.97C102.171 27.278 102.444 27.5183 102.799 27.691C103.158 27.8637 103.581 27.95 104.066 27.95C104.458 27.95 104.836 27.8917 105.2 27.775C105.569 27.6537 105.902 27.4763 106.201 27.243L106.796 28.349C106.572 28.531 106.301 28.6873 105.984 28.818C105.667 28.944 105.335 29.0397 104.99 29.105C104.645 29.175 104.311 29.21 103.989 29.21ZM101.798 24.744H105.725C105.711 24.2213 105.543 23.8107 105.221 23.512C104.904 23.2133 104.451 23.064 103.863 23.064C103.294 23.064 102.82 23.2133 102.442 23.512C102.069 23.8107 101.854 24.2213 101.798 24.744ZM117.336 29.21C116.557 29.21 115.836 29.091 115.173 28.853C114.511 28.615 113.93 28.2743 113.43 27.831C112.936 27.383 112.551 26.8463 112.275 26.221C112 25.5957 111.862 24.8933 111.862 24.114C111.862 23.3393 111.995 22.6393 112.261 22.014C112.527 21.384 112.898 20.845 113.374 20.397C113.855 19.9443 114.417 19.5967 115.061 19.354C115.71 19.1113 116.417 18.99 117.182 18.99C117.537 18.99 117.896 19.018 118.26 19.074C118.624 19.13 118.981 19.2233 119.331 19.354C119.686 19.48 120.022 19.6527 120.339 19.872L119.653 21.104C119.299 20.88 118.914 20.712 118.498 20.6C118.088 20.488 117.663 20.432 117.224 20.432C116.655 20.432 116.139 20.5183 115.677 20.691C115.215 20.859 114.821 21.104 114.494 21.426C114.168 21.7433 113.916 22.1283 113.738 22.581C113.566 23.0337 113.479 23.5423 113.479 24.107C113.479 24.9003 113.647 25.5747 113.983 26.13C114.319 26.6853 114.781 27.1077 115.369 27.397C115.962 27.6817 116.643 27.824 117.413 27.824C117.791 27.824 118.132 27.789 118.435 27.719C118.739 27.6443 118.984 27.5603 119.17 27.467V25.101H116.944V23.799H120.577V28.377C120.321 28.5497 119.999 28.699 119.611 28.825C119.229 28.951 118.832 29.0467 118.421 29.112C118.015 29.1773 117.654 29.21 117.336 29.21ZM124.707 29.21C124.226 29.21 123.804 29.1213 123.44 28.944C123.076 28.762 122.791 28.5077 122.586 28.181C122.385 27.8497 122.285 27.46 122.285 27.012C122.285 26.634 122.381 26.2933 122.572 25.99C122.763 25.682 123.06 25.4277 123.461 25.227C123.867 25.0263 124.387 24.8933 125.022 24.828C125.657 24.758 126.42 24.7673 127.311 24.856L127.339 25.92C126.704 25.8313 126.158 25.794 125.701 25.808C125.244 25.822 124.868 25.8803 124.574 25.983C124.285 26.081 124.07 26.214 123.93 26.382C123.795 26.5453 123.727 26.7343 123.727 26.949C123.727 27.285 123.846 27.544 124.084 27.726C124.327 27.908 124.658 27.999 125.078 27.999C125.437 27.999 125.759 27.9337 126.044 27.803C126.329 27.6723 126.553 27.488 126.716 27.25C126.884 27.012 126.968 26.732 126.968 26.41V24.569C126.968 24.261 126.903 23.995 126.772 23.771C126.641 23.5423 126.443 23.365 126.177 23.239C125.911 23.113 125.58 23.05 125.183 23.05C124.819 23.05 124.46 23.106 124.105 23.218C123.75 23.3253 123.412 23.4957 123.09 23.729L122.656 22.595C123.09 22.301 123.543 22.0933 124.014 21.972C124.485 21.8507 124.938 21.79 125.372 21.79C126.016 21.79 126.567 21.8927 127.024 22.098C127.486 22.2987 127.841 22.6043 128.088 23.015C128.335 23.421 128.459 23.9343 128.459 24.555V29H127.073V28.181C126.84 28.5123 126.515 28.7667 126.1 28.944C125.685 29.1213 125.22 29.21 124.707 29.21ZM130.507 29V22.07H132.047V23.022C132.233 22.7513 132.448 22.532 132.691 22.364C132.933 22.1913 133.19 22.0653 133.461 21.986C133.731 21.902 134.007 21.86 134.287 21.86C134.851 21.86 135.32 21.9837 135.694 22.231C136.072 22.4783 136.338 22.7957 136.492 23.183C136.837 22.679 137.238 22.3337 137.696 22.147C138.153 21.9557 138.613 21.86 139.075 21.86C139.714 21.86 140.225 21.986 140.608 22.238C140.99 22.49 141.266 22.8143 141.434 23.211C141.606 23.6077 141.693 24.016 141.693 24.436V29H140.153V24.884C140.153 24.4033 140.02 24.016 139.754 23.722C139.492 23.4233 139.11 23.274 138.606 23.274C138.274 23.274 137.978 23.3463 137.717 23.491C137.455 23.6357 137.248 23.8363 137.094 24.093C136.944 24.345 136.87 24.6367 136.87 24.968V29H135.33V24.884C135.33 24.4033 135.199 24.016 134.938 23.722C134.676 23.4233 134.291 23.274 133.783 23.274C133.456 23.274 133.16 23.3463 132.894 23.491C132.632 23.6357 132.425 23.8363 132.271 24.093C132.121 24.345 132.047 24.6367 132.047 24.968V29H130.507ZM146.932 29.21C146.186 29.21 145.53 29.0583 144.965 28.755C144.401 28.447 143.96 28.0177 143.642 27.467C143.33 26.9163 143.173 26.277 143.173 25.549C143.173 25.017 143.264 24.527 143.446 24.079C143.628 23.6263 143.885 23.2343 144.216 22.903C144.548 22.5717 144.935 22.315 145.378 22.133C145.826 21.951 146.314 21.86 146.841 21.86C147.415 21.86 147.926 21.9627 148.374 22.168C148.822 22.3687 149.193 22.651 149.487 23.015C149.786 23.379 149.996 23.806 150.117 24.296C150.243 24.7813 150.264 25.3087 150.18 25.878H144.65C144.641 26.2933 144.732 26.6573 144.923 26.97C145.115 27.278 145.388 27.5183 145.742 27.691C146.102 27.8637 146.524 27.95 147.009 27.95C147.401 27.95 147.779 27.8917 148.143 27.775C148.512 27.6537 148.846 27.4763 149.144 27.243L149.739 28.349C149.515 28.531 149.245 28.6873 148.927 28.818C148.61 28.944 148.279 29.0397 147.933 29.105C147.588 29.175 147.254 29.21 146.932 29.21ZM144.741 24.744H148.668C148.654 24.2213 148.486 23.8107 148.164 23.512C147.847 23.2133 147.394 23.064 146.806 23.064C146.237 23.064 145.763 23.2133 145.385 23.512C145.012 23.8107 144.797 24.2213 144.741 24.744ZM154.118 29.203C153.544 29.203 153.007 29.1213 152.508 28.958C152.009 28.7947 151.589 28.5753 151.248 28.3L151.829 27.173C152.151 27.425 152.513 27.6233 152.914 27.768C153.32 27.9127 153.719 27.985 154.111 27.985C154.564 27.985 154.916 27.9057 155.168 27.747C155.42 27.5883 155.546 27.3667 155.546 27.082C155.546 26.8113 155.436 26.613 155.217 26.487C155.002 26.3563 154.592 26.221 153.985 26.081C153.112 25.899 152.478 25.6423 152.081 25.311C151.689 24.975 151.493 24.5107 151.493 23.918C151.493 23.5027 151.607 23.1363 151.836 22.819C152.069 22.497 152.389 22.245 152.795 22.063C153.201 21.881 153.67 21.79 154.202 21.79C154.72 21.79 155.208 21.8647 155.665 22.014C156.122 22.1587 156.519 22.364 156.855 22.63L156.309 23.764C156.136 23.61 155.936 23.477 155.707 23.365C155.478 23.253 155.236 23.1667 154.979 23.106C154.727 23.0407 154.475 23.008 154.223 23.008C153.831 23.008 153.511 23.085 153.264 23.239C153.021 23.3883 152.9 23.596 152.9 23.862C152.9 24.1373 153.017 24.3403 153.25 24.471C153.483 24.6017 153.885 24.7323 154.454 24.863C155.35 25.059 155.992 25.3203 156.379 25.647C156.766 25.9737 156.96 26.4263 156.96 27.005C156.96 27.4483 156.841 27.8357 156.603 28.167C156.365 28.4937 156.031 28.748 155.602 28.93C155.177 29.112 154.683 29.203 154.118 29.203Z" fill="#E0FE08" fill-opacity="0.5"/>
</svg>
