<svg width="48" height="48" viewBox="0 0 48 48" fill="none" xmlns="http://www.w3.org/2000/svg">
<path d="M33.8 24C33.8 17.9104 28.3078 14.2 24 14.2C19.6922 14.2 14.2 18 14.2 24C14.2 30.5 19.6922 33.8 24 33.8C28.3078 33.8 33.8 30.0896 33.8 24ZM37 24C37 31.1797 31.1797 37 24 37C16.8203 37 11 31.1797 11 24C11 16.8203 16.8203 11 24 11C31.1797 11 37 16.8203 37 24Z" fill="#E0FE08" fill-opacity="0.5"/>
<path d="M23.8984 28.4205C23.2323 28.4205 22.6397 28.3123 22.1207 28.0961C21.6045 27.8769 21.1994 27.5785 20.9053 27.2007C20.6112 26.823 20.4641 26.3948 20.4641 25.9161C20.4641 25.547 20.5477 25.2082 20.715 24.8997C20.8851 24.5882 21.1158 24.3302 21.407 24.1254C21.6983 23.9178 22.0241 23.7852 22.3845 23.7275V23.6669C21.9116 23.5718 21.5281 23.3425 21.234 22.9792C20.9399 22.613 20.7928 22.1877 20.7928 21.7032C20.7928 21.2448 20.9269 20.8367 21.1951 20.4792C21.4632 20.1187 21.8309 19.8362 22.298 19.6314C22.7681 19.4238 23.3015 19.32 23.8984 19.32C24.4953 19.32 25.0273 19.4238 25.4944 19.6314C25.9645 19.839 26.3335 20.1231 26.6017 20.4835C26.8699 20.8411 27.0054 21.2476 27.0083 21.7032C27.0054 22.1906 26.8555 22.6159 26.5585 22.9792C26.2615 23.3425 25.8808 23.5718 25.4166 23.6669V23.7275C25.7713 23.7852 26.0928 23.9178 26.3811 24.1254C26.6724 24.3302 26.903 24.5882 27.0732 24.8997C27.2462 25.2082 27.3341 25.547 27.337 25.9161C27.3341 26.3948 27.1856 26.823 26.8915 27.2007C26.5974 27.5785 26.1908 27.8769 25.6718 28.0961C25.1556 28.3123 24.5645 28.4205 23.8984 28.4205ZM23.8984 27.045C24.1954 27.045 24.4549 26.9917 24.677 26.885C24.899 26.7754 25.072 26.6255 25.196 26.4351C25.3229 26.2419 25.3863 26.0199 25.3863 25.769C25.3863 25.5124 25.3214 25.286 25.1917 25.09C25.0619 24.891 24.886 24.7353 24.664 24.6228C24.4419 24.5075 24.1868 24.4498 23.8984 24.4498C23.6129 24.4498 23.3577 24.5075 23.1328 24.6228C22.9079 24.7353 22.7306 24.891 22.6008 25.09C22.4739 25.286 22.4105 25.5124 22.4105 25.769C22.4105 26.0199 22.4725 26.2419 22.5965 26.4351C22.7205 26.6255 22.8949 26.7754 23.1198 26.885C23.3448 26.9917 23.6043 27.045 23.8984 27.045ZM23.8984 23.0873C24.1464 23.0873 24.367 23.0369 24.5602 22.936C24.7534 22.835 24.9048 22.6952 25.0143 22.5164C25.1239 22.3376 25.1787 22.1315 25.1787 21.8979C25.1787 21.6672 25.1239 21.4654 25.0143 21.2923C24.9048 21.1164 24.7548 20.9795 24.5645 20.8814C24.3742 20.7805 24.1521 20.7301 23.8984 20.7301C23.6475 20.7301 23.4255 20.7805 23.2323 20.8814C23.0391 20.9795 22.8877 21.1164 22.7781 21.2923C22.6715 21.4654 22.6181 21.6672 22.6181 21.8979C22.6181 22.1315 22.6729 22.3376 22.7825 22.5164C22.892 22.6952 23.0434 22.835 23.2366 22.936C23.4298 23.0369 23.6504 23.0873 23.8984 23.0873Z" fill="#E0FE08" fill-opacity="0.5"/>
</svg>
