<svg width="48" height="48" viewBox="0 0 48 48" fill="none" xmlns="http://www.w3.org/2000/svg">
<path d="M31.6503 12.8086C32.0124 12.8086 32.306 13.1022 32.306 13.4643V14.2731H35.3224C35.6887 14.2731 36.0001 14.5677 36 14.95C35.9994 16.8721 35.9745 20.2769 32.7749 22.5323C31.681 23.3033 30.7747 23.6945 30.0645 23.8877C29.4122 24.0653 28.9442 24.0702 28.6841 24.0637C27.2441 25.2416 26.0004 26.79 26.0004 28.6326V30.956C26.0004 30.9982 25.9989 31.0402 25.9963 31.0818H28.3279C28.69 31.0818 28.9836 31.3754 28.9836 31.7376V34.0108H29.8798C30.2057 34.0108 30.4699 34.275 30.4699 34.6009C30.4699 34.9269 30.2057 35.1911 29.8798 35.1911H18.1202C17.7943 35.1911 17.5301 34.9269 17.5301 34.6009C17.5301 34.275 17.7943 34.0108 18.1202 34.0108H19.0164V31.7376C19.0164 31.3754 19.31 31.0818 19.6721 31.0818H21.9931C21.9905 31.0402 21.9891 30.9982 21.9891 30.956V28.6285C21.9891 26.7891 20.7504 25.2423 19.3147 24.0638C19.0543 24.0702 18.5868 24.065 17.9355 23.8877C17.2253 23.6945 16.319 23.3033 15.2251 22.5323C12.0255 20.2769 12.0006 16.8721 12 14.95C11.9999 14.5677 12.3113 14.2731 12.6776 14.2731H15.694V13.4643C15.694 13.1022 15.9876 12.8086 16.3497 12.8086H31.6503ZM32.306 15.4534V17.1802C32.306 19.2291 31.5641 21.1046 30.3343 22.553C30.8174 22.3599 31.4051 22.0537 32.0949 21.5675C34.5338 19.8483 34.7903 17.3499 34.8166 15.4534H32.306ZM13.1834 15.4534C13.2097 17.3499 13.4662 19.8483 15.9051 21.5675C16.5949 22.0537 17.1826 22.3599 17.6657 22.553C16.4359 21.1046 15.694 19.2291 15.694 17.1802V15.4534H13.1834Z" fill="#E0FE08" fill-opacity="0.5"/>
</svg>
