<svg width="48" height="48" viewBox="0 0 48 48" fill="none" xmlns="http://www.w3.org/2000/svg">
<path d="M29.001 33C29.5532 33 30.001 33.4477 30.001 34C30.001 34.5523 29.5532 35 29.001 35H19.001C18.4487 35 18.001 34.5523 18.001 34C18.001 33.4477 18.4487 33 19.001 33H29.001ZM23.998 13C24.4398 12.9996 24.8696 13.1457 25.2197 13.415C25.5699 13.6844 25.8207 14.0622 25.9336 14.4893C26.0465 14.9162 26.0149 15.3683 25.8437 15.7754C25.6725 16.1826 25.3715 16.5223 24.9873 16.7402C25.6633 18.0712 26.586 19.8942 27.9629 20.6143C29.1248 21.2212 30.7479 21.0126 32.0068 20.8496C32.0346 20.5726 32.1394 20.309 32.3086 20.0879C32.4779 19.8667 32.7055 19.6968 32.9658 19.5977C33.226 19.4985 33.5087 19.4739 33.7822 19.5264C34.0557 19.5789 34.3096 19.7062 34.5146 19.8945C34.7197 20.083 34.868 20.3256 34.9434 20.5938C35.0187 20.8618 35.0182 21.1454 34.9414 21.4131C34.8645 21.6808 34.7149 21.9221 34.5088 22.1094C34.3027 22.2967 34.0482 22.4226 33.7744 22.4736L30.8271 30.084C30.6086 30.648 30.2246 31.1327 29.7256 31.4746C29.2264 31.8165 28.6353 31.9999 28.0303 32H19.9707C19.3657 31.9999 18.7745 31.8165 18.2754 31.4746C17.7762 31.1327 17.3915 30.6482 17.1728 30.084L14.2256 22.4736C13.95 22.4221 13.694 22.2949 13.4873 22.1055C13.2807 21.916 13.1309 21.6724 13.0557 21.4023C12.9804 21.1323 12.9826 20.8462 13.0615 20.5771C13.1405 20.3081 13.2936 20.0665 13.5029 19.8799C13.7122 19.6934 13.9699 19.5692 14.2461 19.5215C14.5222 19.4739 14.8059 19.5049 15.0654 19.6104C15.3252 19.7159 15.5502 19.8922 15.7148 20.1191C15.8793 20.346 15.9773 20.6141 15.9971 20.8936C17.227 21.1195 18.8831 21.4232 20.0371 20.8203C21.4421 20.0853 22.3518 18.1268 23.0068 16.7598L23.0176 16.7422C22.6329 16.525 22.3303 16.1861 22.1582 15.7793C21.9862 15.3726 21.9535 14.9203 22.0654 14.4932C22.1775 14.0659 22.4287 13.688 22.7783 13.418C23.1278 13.148 23.5564 13.0005 23.998 13Z" fill="#E0FE08" fill-opacity="0.5"/>
</svg>
